<?xml version="1.0" standalone="no"?>
<!DOCTYPE svg PUBLIC "-//W3C//DTD SVG 20010904//EN"
 "http://www.w3.org/TR/2001/REC-SVG-20010904/DTD/svg10.dtd">
<svg version="1.0" xmlns="http://www.w3.org/2000/svg"
 width="700.000000pt" height="700.000000pt" viewBox="0 0 700.000000 700.000000"
 preserveAspectRatio="xMidYMid meet">
<metadata>
Created by potrace 1.14, written by Peter Selinger 2001-2017
</metadata>
<g transform="translate(0.000000,700.000000) scale(0.100000,-0.100000)"
fill="#000000" stroke="none">
<path d="M2579 6973 c0 -15 -1 -652 -1 -1415 0 -764 -2 -1388 -4 -1388 -1 0
-31 7 -66 15 -35 8 -81 17 -103 20 -22 3 -49 7 -60 10 -80 16 -376 23 -500 11
-271 -24 -548 -121 -761 -266 -284 -193 -545 -522 -692 -870 -38 -90 -95 -259
-106 -311 -3 -13 -14 -64 -24 -114 -19 -88 -23 -115 -39 -260 -15 -138 -7
-553 12 -625 2 -8 7 -35 10 -60 64 -463 318 -962 653 -1284 218 -208 492 -347
804 -406 169 -32 547 -35 713 -5 137 25 267 59 339 89 34 14 118 16 775 16
l736 0 0 1279 c0 704 3 1282 5 1284 3 3 149 7 325 10 176 3 334 8 350 11 17 2
57 7 90 11 101 11 127 14 210 31 762 151 1239 570 1435 1262 36 127 67 279 76
365 3 34 7 64 9 67 9 14 19 248 20 420 0 177 -10 371 -20 403 -2 6 -6 35 -9
64 -3 28 -13 84 -21 125 -158 755 -590 1210 -1351 1422 -132 36 -291 66 -454
86 -47 5 -105 12 -130 16 -25 3 -534 8 -1132 11 l-1088 4 -1 -28z m2001 -917
c14 -2 59 -10 100 -17 41 -7 77 -13 80 -14 499 -127 752 -407 825 -913 13 -90
14 -433 2 -487 -2 -11 -8 -42 -11 -68 -35 -238 -141 -463 -287 -608 -150 -149
-382 -260 -614 -294 -23 -3 -52 -7 -65 -10 -14 -3 -68 -8 -120 -11 -114 -7
-93 -7 -165 -5 l-60 1 0 1221 0 1222 145 -6 c80 -4 156 -8 170 -11z m-2065
-2688 l60 -13 0 -1239 0 -1240 -30 -8 c-48 -13 -144 -22 -230 -22 -297 1 -542
101 -737 300 -124 127 -211 256 -273 404 -132 313 -143 732 -29 1051 121 338
395 628 694 731 72 25 94 31 170 43 19 3 36 8 38 9 9 9 284 -4 337 -16z"/>
</g>
</svg>
