<svg xmlns="http://www.w3.org/2000/svg" xmlns:xlink="http://www.w3.org/1999/xlink" width="189.642" height="48.778" viewBox="0 0 189.642 48.778">
  <defs>
    <clipPath id="clip-path">
      <path id="Clip_13" data-name="Clip 13" d="M0,48.331H189.642V0H0Z" transform="translate(0 0.223)" fill="none"/>
    </clipPath>
  </defs>
  <g id="Group_33_Copy_2" data-name="Group 33 Copy 2" transform="translate(0 -0.223)">
    <path id="Fill_1" data-name="Fill 1" d="M1.514,6H0L2.334,0H3.667L6,6H4.487l-.5-1.344H2L1.514,6ZM3,1.58,2.234,3.7H3.748Z" transform="translate(1 43)" fill="#335290"/>
    <g id="Group_32" data-name="Group 32">
      <path id="Fill_2" data-name="Fill 2" d="M2.269,6.07H0V0H2.269A3.368,3.368,0,0,1,3.587.239a2.735,2.735,0,0,1,.946.65,2.7,2.7,0,0,1,.573.962A3.545,3.545,0,0,1,5.3,3.027a3.485,3.485,0,0,1-.214,1.252,2.684,2.684,0,0,1-.612.958,2.749,2.749,0,0,1-.958.616A3.441,3.441,0,0,1,2.269,6.07ZM1.4,1.231V4.839h.864A1.632,1.632,0,0,0,2.954,4.7a1.383,1.383,0,0,0,.5-.381,1.754,1.754,0,0,0,.309-.572,2.354,2.354,0,0,0,.107-.723A2.377,2.377,0,0,0,3.763,2.3a1.661,1.661,0,0,0-.312-.568,1.371,1.371,0,0,0-.506-.368,1.711,1.711,0,0,0-.676-.128Z" transform="translate(12.769 42.416)" fill="#335290"/>
      <path id="Fill_4" data-name="Fill 4" d="M1.49,0,2.92,4.309,4.332,0H5.813L3.51,6.071H2.329L0,0Z" transform="translate(23.65 42.416)" fill="#335290"/>
      <path id="Fill_6" data-name="Fill 6" d="M4.272,4.84V6.071H0V0H4.195V1.231H1.4v1.18H3.8V3.549H1.4V4.84Z" transform="translate(35.593 42.415)" fill="#335290"/>
      <path id="Fill_8" data-name="Fill 8" d="M1.4,6.072H0V0H2.74a1.787,1.787,0,0,1,.792.179A2.128,2.128,0,0,1,4.161.65a2.21,2.21,0,0,1,.415.659,1.962,1.962,0,0,1,.15.743A2.134,2.134,0,0,1,4.46,3.087a1.874,1.874,0,0,1-.728.726L5.067,6.07l-1.583,0L2.32,4.113H1.4V6.071Zm0-4.841V2.89H2.688a.529.529,0,0,0,.428-.235.969.969,0,0,0,.18-.6.853.853,0,0,0-.205-.6.6.6,0,0,0-.445-.222Z" transform="translate(46.285 42.415)" fill="#335290"/>
      <path id="Fill_10" data-name="Fill 10" d="M5.111,1.231H3.261v4.84h-1.4V1.231H0V0H5.111Z" transform="translate(57.012 42.415)" fill="#335290"/>
      <path id="Clip_13-2" data-name="Clip 13" d="M0,48.331H189.642V0H0Z" transform="translate(0 0.223)" fill="none"/>
      <g id="Group_32-2" data-name="Group 32" clip-path="url(#clip-path)">
        <path id="Fill_12" data-name="Fill 12" d="M0,6.071H1.4V0H0Z" transform="translate(68.372 42.416)" fill="#335290"/>
        <path id="Fill_14" data-name="Fill 14" d="M4.075,1.829A.871.871,0,0,0,3.9,1.7a3.418,3.418,0,0,0-.385-.2,3.634,3.634,0,0,0-.5-.18,2.024,2.024,0,0,0-.548-.077q-.753,0-.753.5a.4.4,0,0,0,.081.257.725.725,0,0,0,.24.184,2.213,2.213,0,0,0,.4.15c.16.046.346.1.557.154a7.183,7.183,0,0,1,.788.261,2.108,2.108,0,0,1,.595.35,1.429,1.429,0,0,1,.377.509,1.776,1.776,0,0,1,.132.719,1.8,1.8,0,0,1-.193.868,1.61,1.61,0,0,1-.509.572,2.131,2.131,0,0,1-.727.317,3.611,3.611,0,0,1-.848.1,4.776,4.776,0,0,1-.685-.051,5.034,5.034,0,0,1-.685-.15,5.412,5.412,0,0,1-.646-.235A3.625,3.625,0,0,1,0,5.438L.617,4.214a1.183,1.183,0,0,0,.223.163,3.3,3.3,0,0,0,.467.239,4.7,4.7,0,0,0,.62.214,2.582,2.582,0,0,0,.694.094q.745,0,.745-.453a.382.382,0,0,0-.112-.282,1.066,1.066,0,0,0-.308-.2,3.245,3.245,0,0,0-.467-.166l-.587-.171a5.054,5.054,0,0,1-.727-.278,1.925,1.925,0,0,1-.51-.346,1.264,1.264,0,0,1-.3-.453,1.664,1.664,0,0,1-.1-.6,1.9,1.9,0,0,1,.181-.846A1.824,1.824,0,0,1,.925.508,2.128,2.128,0,0,1,1.64.128,2.825,2.825,0,0,1,2.5,0a3.289,3.289,0,0,1,.625.059,4.643,4.643,0,0,1,.591.154,4.3,4.3,0,0,1,.527.214c.162.08.312.159.449.24Z" transform="translate(76.077 42.365)" fill="#335290"/>
        <path id="Fill_15" data-name="Fill 15" d="M0,6.071H1.4V0H0Z" transform="translate(87.334 42.416)" fill="#335290"/>
        <path id="Fill_16" data-name="Fill 16" d="M1.4,2.6V6.071H0V0H1.1L3.93,3.565V0h1.4V6.071H4.2Z" transform="translate(95.467 42.416)" fill="#335290"/>
        <path id="Fill_17" data-name="Fill 17" d="M4.52,5.515a2.289,2.289,0,0,1-1.6.641A2.842,2.842,0,0,1,.86,5.292a3.009,3.009,0,0,1-.629-.987A3.385,3.385,0,0,1,0,3.036a3.042,3.042,0,0,1,.231-1.18A2.991,2.991,0,0,1,.869.889,3.024,3.024,0,0,1,1.832.24,2.993,2.993,0,0,1,3.031,0,2.983,2.983,0,0,1,4.512.355a2.306,2.306,0,0,1,.95.971l-1.044.786a1.5,1.5,0,0,0-.595-.637,1.651,1.651,0,0,0-.843-.227,1.428,1.428,0,0,0-.638.141,1.467,1.467,0,0,0-.492.393,1.833,1.833,0,0,0-.317.586,2.256,2.256,0,0,0-.111.718,2.149,2.149,0,0,0,.12.727,1.764,1.764,0,0,0,.334.576,1.525,1.525,0,0,0,.51.381,1.545,1.545,0,0,0,.655.137A1.935,1.935,0,0,0,4.52,4.147V3.959H3.339V2.941H5.684V6.114H4.52Z" transform="translate(107.187 42.373)" fill="#335290"/>
        <path id="Fill_18" data-name="Fill 18" d="M1.437,6.072H0L2.216,0H3.484L5.7,6.07H4.262l-.471-1.36H1.9l-.463,1.36ZM2.85,1.6,2.122,3.745H3.561Z" transform="translate(126.091 42.415)" fill="#335290"/>
        <path id="Fill_19" data-name="Fill 19" d="M4.52,5.515a2.288,2.288,0,0,1-1.6.641A2.842,2.842,0,0,1,.86,5.292a3,3,0,0,1-.629-.987A3.385,3.385,0,0,1,0,3.036a3.042,3.042,0,0,1,.231-1.18A2.977,2.977,0,0,1,.869.889,3.029,3.029,0,0,1,3.03,0,2.982,2.982,0,0,1,4.511.355a2.3,2.3,0,0,1,.95.971l-1.044.786a1.5,1.5,0,0,0-.595-.637,1.651,1.651,0,0,0-.843-.227,1.427,1.427,0,0,0-.638.141,1.459,1.459,0,0,0-.492.393,1.824,1.824,0,0,0-.317.586,2.244,2.244,0,0,0-.111.718,2.149,2.149,0,0,0,.119.727,1.765,1.765,0,0,0,.334.576,1.523,1.523,0,0,0,.509.381,1.546,1.546,0,0,0,.655.137A1.934,1.934,0,0,0,4.52,4.147V3.959H3.339V2.941H5.684V6.114H4.52Z" transform="translate(137.391 42.373)" fill="#335290"/>
        <path id="Fill_20" data-name="Fill 20" d="M4.272,4.84V6.071H0V0H4.2V1.231H1.4v1.18H3.8V3.549H1.4V4.84Z" transform="translate(149.564 42.415)" fill="#335290"/>
        <path id="Fill_21" data-name="Fill 21" d="M1.4,2.6V6.071H0V0H1.1L3.93,3.565V0h1.4V6.071H4.2Z" transform="translate(160.257 42.416)" fill="#335290"/>
        <path id="Fill_22" data-name="Fill 22" d="M0,3.018a3.043,3.043,0,0,1,.206-1.09,2.961,2.961,0,0,1,.6-.971A3.045,3.045,0,0,1,1.764.265,2.987,2.987,0,0,1,3.048,0,2.893,2.893,0,0,1,4.533.368a2.376,2.376,0,0,1,.938.958l-1.078.752a1.254,1.254,0,0,0-.261-.4,1.445,1.445,0,0,0-.347-.257A1.407,1.407,0,0,0,3.4,1.287a1.993,1.993,0,0,0-.385-.039,1.452,1.452,0,0,0-.7.163,1.521,1.521,0,0,0-.5.419,1.724,1.724,0,0,0-.291.581,2.349,2.349,0,0,0-.094.658,2.166,2.166,0,0,0,.111.693,1.821,1.821,0,0,0,.321.59,1.53,1.53,0,0,0,.505.406,1.439,1.439,0,0,0,.663.15,1.722,1.722,0,0,0,.389-.047,1.611,1.611,0,0,0,.385-.146,1.362,1.362,0,0,0,.339-.257,1.206,1.206,0,0,0,.248-.389l1.147.676a1.782,1.782,0,0,1-.406.6,2.548,2.548,0,0,1-.621.445,3.337,3.337,0,0,1-.745.273A3.307,3.307,0,0,1,3,6.156a2.718,2.718,0,0,1-1.211-.269,3.061,3.061,0,0,1-.95-.714A3.254,3.254,0,0,1,.219,4.164,3.154,3.154,0,0,1,0,3.018" transform="translate(171.968 42.381)" fill="#335290"/>
        <path id="Fill_23" data-name="Fill 23" d="M1.524,0l1.31,2.787L4.16,0H5.693L3.527,4V6.071h-1.4V3.984L0,0Z" transform="translate(183.063 42.416)" fill="#335290"/>
        <path id="Fill_24" data-name="Fill 24" d="M13.128,30.639H0V0H13.435a18.925,18.925,0,0,1,8.644,1.9,13.949,13.949,0,0,1,5.8,5.376A15.522,15.522,0,0,1,29.933,15.3a15.381,15.381,0,0,1-2.1,8.042,14.094,14.094,0,0,1-5.909,5.4A19.533,19.533,0,0,1,13.128,30.639ZM9.1,7.168V23.514H13.7a6.359,6.359,0,0,0,5.033-2.229,8.74,8.74,0,0,0,1.925-5.9A8.564,8.564,0,0,0,18.6,9.44a6.9,6.9,0,0,0-5.34-2.273Z" transform="translate(157.519 4.203)" fill="#fcb62c"/>
        <path id="Fill_25" data-name="Fill 25" d="M13.129,30.639H0V0H13.435a18.92,18.92,0,0,1,8.644,1.9,13.949,13.949,0,0,1,5.8,5.376A15.514,15.514,0,0,1,29.934,15.3a15.38,15.38,0,0,1-2.1,8.042,14.1,14.1,0,0,1-5.908,5.4A19.539,19.539,0,0,1,13.129,30.639ZM9.1,7.168V23.514H13.7a6.362,6.362,0,0,0,5.033-2.229,8.744,8.744,0,0,0,1.925-5.9A8.561,8.561,0,0,0,18.6,9.44a6.9,6.9,0,0,0-5.339-2.273Z" transform="translate(0 2.016)" fill="#335290"/>
        <path id="Fill_26" data-name="Fill 26" d="M13.261,24.388a15.409,15.409,0,0,1-6.98-1.507A11.034,11.034,0,0,1,1.642,18.6,12.391,12.391,0,0,1,0,12.194,12.359,12.359,0,0,1,1.642,5.77,11.082,11.082,0,0,1,6.28,1.508,15.409,15.409,0,0,1,13.261,0a15.277,15.277,0,0,1,6.958,1.508A11.121,11.121,0,0,1,24.836,5.77a12.359,12.359,0,0,1,1.641,6.424,12.391,12.391,0,0,1-1.641,6.4,11.073,11.073,0,0,1-4.617,4.283A15.277,15.277,0,0,1,13.261,24.388Zm0-17.4A3.857,3.857,0,0,0,10.11,8.458a5.917,5.917,0,0,0-1.182,3.823,5.913,5.913,0,0,0,1.182,3.847,3.885,3.885,0,0,0,3.151,1.442,3.838,3.838,0,0,0,3.107-1.442,5.917,5.917,0,0,0,1.182-3.847,5.922,5.922,0,0,0-1.182-3.823A3.812,3.812,0,0,0,13.261,6.992Z" transform="translate(31.97 8.572)" fill="#335290"/>
        <path id="Fill_27" data-name="Fill 27" d="M24.551,0V23.777h-8.84v-3.54a8.344,8.344,0,0,1-3.085,2.929A8.755,8.755,0,0,1,8.4,24.171,8.541,8.541,0,0,1,4,23.056a7.575,7.575,0,0,1-2.954-3.17A10.416,10.416,0,0,1,0,15.08V0H8.84V12.587a4.131,4.131,0,0,0,.875,2.776,2.9,2.9,0,0,0,2.32,1.028,3.336,3.336,0,0,0,2.691-1.311,5.263,5.263,0,0,0,.985-3.322V0Z" transform="translate(60.752 8.878)" fill="#335290"/>
        <path id="Fill_28" data-name="Fill 28" d="M15.58,32.737a9.04,9.04,0,0,1-3.808-.786A8.271,8.271,0,0,1,8.84,29.677v2.754H0V0H8.84V11.408a7.97,7.97,0,0,1,2.844-2.273,8.513,8.513,0,0,1,3.677-.787,10.878,10.878,0,0,1,5.777,1.53A10.316,10.316,0,0,1,25.01,14.2a14.52,14.52,0,0,1,1.379,6.469,14.388,14.388,0,0,1-1.335,6.359,9.9,9.9,0,0,1-3.785,4.217A10.8,10.8,0,0,1,15.58,32.737Zm-2.452-17.57a3.812,3.812,0,0,0-3.107,1.463A5.935,5.935,0,0,0,8.84,20.456a5.935,5.935,0,0,0,1.182,3.825,3.814,3.814,0,0,0,3.107,1.463,3.863,3.863,0,0,0,3.152-1.463,5.935,5.935,0,0,0,1.181-3.825,5.935,5.935,0,0,0-1.181-3.825A3.861,3.861,0,0,0,13.128,15.168Z" transform="translate(88.121 0.223)" fill="#335290"/>
        <path id="Fill_29" data-name="Fill 29" d="M0,32.431H8.84V0H0Z" transform="translate(116.769 0.223)" fill="#335290"/>
        <path id="Fill_30" data-name="Fill 30" d="M12.823,24.388a14.646,14.646,0,0,1-6.828-1.507,10.715,10.715,0,0,1-4.441-4.24A12.689,12.689,0,0,1,0,12.281,12.906,12.906,0,0,1,1.575,5.835a11,11,0,0,1,4.42-4.306A13.715,13.715,0,0,1,12.56,0c3.892,0,6.97,1.169,9.147,3.474s3.282,5.5,3.282,9.508c0,.6-.015,1.056-.043,1.354H8.927a5.082,5.082,0,0,0,1.729,2.623,4.677,4.677,0,0,0,2.911.917A7.751,7.751,0,0,0,18.817,15.6l4.6,4.5A12.3,12.3,0,0,1,18.84,23.3,15.939,15.939,0,0,1,12.823,24.388Zm-.176-18.4A3.314,3.314,0,0,0,10.11,7.081a5.848,5.848,0,0,0-1.358,2.928h7.484a4.058,4.058,0,0,0-.963-2.885A3.357,3.357,0,0,0,12.647,5.988Z" transform="translate(127.913 8.572)" fill="#335290"/>
        <path id="Fill_31" data-name="Fill 31" d="M13.128,30.639H0V0H13.435a18.925,18.925,0,0,1,8.644,1.9,13.949,13.949,0,0,1,5.8,5.376A15.522,15.522,0,0,1,29.933,15.3a15.388,15.388,0,0,1-2.1,8.042,14.1,14.1,0,0,1-5.909,5.4A19.533,19.533,0,0,1,13.128,30.639ZM9.1,7.168V23.514H13.7a6.359,6.359,0,0,0,5.033-2.229,8.74,8.74,0,0,0,1.925-5.9A8.561,8.561,0,0,0,18.6,9.44,6.9,6.9,0,0,0,13.26,7.168Z" transform="translate(159.709 2.016)" fill="#335290"/>
      </g>
    </g>
  </g>
</svg>
