<?xml version="1.0" encoding="UTF-8" standalone="no"?>
<!DOCTYPE svg PUBLIC "-//W3C//DTD SVG 1.1//EN" "http://www.w3.org/Graphics/SVG/1.1/DTD/svg11.dtd">
<svg width="100%" height="100%" viewBox="0 0 339 314" version="1.1" xmlns="http://www.w3.org/2000/svg" xmlns:xlink="http://www.w3.org/1999/xlink" xml:space="preserve" xmlns:serif="http://www.serif.com/" style="fill-rule:evenodd;clip-rule:evenodd;stroke-linejoin:round;stroke-miterlimit:2;">
    <g transform="matrix(1,0,0,1,-123.55,-122.776)">
        <path d="M461.514,298.355L443.465,242.768C443.473,242.793 443.476,242.819 443.484,242.844C443.475,242.815 443.47,242.786 443.462,242.757C443.461,242.755 443.461,242.754 443.461,242.752L443.461,242.75L407.631,132.44C405.671,126.629 400.278,122.729 394.095,122.777C387.894,122.809 382.649,126.634 380.731,132.525L346.721,237.23L239.408,237.23L205.334,132.518C203.418,126.632 198.172,122.808 191.972,122.776L191.897,122.776C185.792,122.776 180.388,126.652 178.407,132.528L142.675,242.739L142.67,242.753L142.67,242.756C142.661,242.784 142.657,242.812 142.648,242.84C142.656,242.815 142.659,242.789 142.667,242.764L124.552,298.355C121.827,306.747 124.784,315.867 131.912,321.052L288.328,434.7C288.351,434.717 288.377,434.727 288.4,434.744C288.467,434.792 288.532,434.841 288.6,434.886C288.536,434.843 288.476,434.796 288.413,434.752C288.413,434.752 288.413,434.751 288.412,434.751C288.422,434.759 288.434,434.764 288.445,434.771C288.454,434.777 288.463,434.781 288.472,434.787C288.473,434.788 288.474,434.789 288.476,434.79C288.718,434.958 288.969,435.112 289.229,435.253C289.265,435.273 289.297,435.298 289.333,435.317C289.334,435.317 289.334,435.318 289.335,435.318C289.357,435.329 289.377,435.343 289.399,435.354C289.416,435.362 289.434,435.367 289.45,435.375C289.462,435.381 289.475,435.385 289.487,435.39C289.516,435.404 289.548,435.413 289.577,435.428C289.713,435.493 289.856,435.546 289.996,435.603C290.127,435.657 290.254,435.72 290.388,435.767C290.394,435.769 290.399,435.772 290.405,435.774C290.427,435.782 290.447,435.793 290.47,435.801C290.498,435.811 290.525,435.822 290.553,435.831C290.564,435.834 290.575,435.836 290.586,435.839C290.621,435.85 290.659,435.855 290.694,435.865C290.707,435.869 290.722,435.871 290.736,435.875C290.924,435.932 291.119,435.973 291.313,436.016C291.389,436.033 291.462,436.057 291.539,436.071C291.55,436.073 291.56,436.077 291.572,436.079C291.597,436.084 291.62,436.093 291.646,436.097C291.687,436.104 291.727,436.117 291.769,436.123C291.802,436.128 291.836,436.126 291.869,436.131C291.875,436.132 291.88,436.131 291.886,436.132L291.891,436.132C292.26,436.185 292.634,436.222 293.015,436.222L293.028,436.222C293.41,436.222 293.784,436.185 294.154,436.132L294.158,436.132C294.164,436.131 294.17,436.132 294.176,436.131C294.209,436.126 294.244,436.128 294.277,436.123C294.319,436.116 294.359,436.104 294.401,436.097C294.426,436.093 294.449,436.084 294.474,436.079C294.485,436.077 294.495,436.073 294.506,436.071C294.584,436.056 294.659,436.032 294.737,436.015C294.928,435.973 295.12,435.932 295.307,435.876C295.32,435.872 295.333,435.871 295.346,435.867C295.383,435.856 295.421,435.851 295.458,435.84C295.469,435.836 295.481,435.835 295.492,435.832C295.521,435.823 295.549,435.811 295.577,435.801C295.599,435.793 295.619,435.782 295.641,435.774C295.647,435.772 295.652,435.769 295.658,435.767C295.8,435.717 295.934,435.651 296.073,435.594C296.202,435.54 296.334,435.492 296.46,435.432C296.491,435.417 296.524,435.408 296.554,435.393C296.566,435.387 296.58,435.383 296.592,435.377C296.609,435.369 296.627,435.364 296.644,435.355C296.667,435.343 296.689,435.329 296.711,435.318C296.711,435.318 296.712,435.318 296.712,435.317C296.749,435.298 296.782,435.271 296.819,435.251C297.077,435.111 297.327,434.958 297.568,434.791C297.587,434.778 297.609,434.768 297.629,434.754C297.634,434.75 297.64,434.748 297.645,434.744C297.668,434.727 297.695,434.716 297.718,434.699L454.158,321.049C461.282,315.867 464.239,306.747 461.514,298.355ZM394.194,142.774L424.874,237.23L363.514,237.23L394.194,142.774ZM419.501,253.202L406.982,269.243L314.648,387.55L358.325,253.202L419.501,253.202ZM285.428,430.707C285.436,430.731 285.449,430.753 285.457,430.778C285.449,430.753 285.436,430.731 285.428,430.707ZM271.42,387.558L166.624,253.202L227.804,253.202L271.42,387.558ZM191.875,142.773L222.612,237.23L161.252,237.23L191.875,142.773ZM141.304,308.133C139.788,307.03 139.16,305.083 139.741,303.295L153.207,261.97L251.877,388.472L141.304,308.133ZM288.053,434.489C288.022,434.464 287.992,434.437 287.962,434.411C287.956,434.406 287.95,434.399 287.943,434.394C287.883,434.344 287.824,434.293 287.766,434.241C287.652,434.142 287.54,434.041 287.433,433.935C287.442,433.943 287.452,433.95 287.461,433.958C287.473,433.969 287.486,433.978 287.498,433.989C287.727,434.208 287.968,434.414 288.22,434.604C288.223,434.606 288.225,434.609 288.228,434.611C288.24,434.62 288.25,434.631 288.262,434.641C288.193,434.591 288.121,434.543 288.053,434.489ZM293.028,402.392L267.363,323.333L244.597,253.202L341.53,253.202L293.028,402.392ZM298.281,434.241C298.221,434.293 298.163,434.345 298.102,434.395C298.095,434.401 298.088,434.408 298.081,434.414C298.05,434.439 298.021,434.466 297.991,434.491C297.925,434.544 297.853,434.592 297.784,434.643C297.796,434.634 297.806,434.622 297.819,434.614C297.821,434.612 297.823,434.61 297.825,434.608C298.077,434.418 298.317,434.214 298.544,433.995C298.553,433.986 298.564,433.979 298.573,433.971C298.585,433.96 298.598,433.951 298.609,433.94C298.503,434.043 298.392,434.143 298.281,434.241ZM444.766,308.13L334.209,388.447L432.912,261.98L446.324,303.287C446.906,305.083 446.279,307.03 444.766,308.13Z" style="fill:rgb(00,00,00);fill-rule:nonzero;"/>
    </g>
</svg>

