<?xml version="1.0" encoding="UTF-8" standalone="no"?>
<!DOCTYPE svg PUBLIC "-//W3C//DTD SVG 1.1//EN" "http://www.w3.org/Graphics/SVG/1.1/DTD/svg11.dtd">
<svg width="100%" height="100%" viewBox="0 0 2184 919" version="1.1" xmlns="http://www.w3.org/2000/svg" xmlns:xlink="http://www.w3.org/1999/xlink" xml:space="preserve" xmlns:serif="http://www.serif.com/" style="fill-rule:evenodd;clip-rule:evenodd;stroke-linejoin:round;stroke-miterlimit:2;">
    <g transform="matrix(1.38465,0,0,1.38465,-322.424,-387.773)">
        <g transform="matrix(1.47973,0,0,1.47973,591.878,-307.445)">
            <g transform="matrix(527.484,0,0,527.484,561.267,757.301)">
                <path d="M0.318,-0.037C0.292,-0.004 0.251,0.013 0.195,0.013C0.139,0.013 0.094,-0.008 0.062,-0.051C0.028,-0.094 0.012,-0.144 0.012,-0.201C0.012,-0.258 0.029,-0.307 0.063,-0.348C0.096,-0.388 0.139,-0.408 0.192,-0.408C0.248,-0.408 0.289,-0.392 0.316,-0.359L0.318,-0.683L0.415,-0.683L0.415,-0L0.318,-0L0.318,-0.037ZM0.329,-0.198C0.329,-0.233 0.318,-0.262 0.297,-0.287C0.276,-0.312 0.25,-0.324 0.22,-0.324C0.19,-0.324 0.164,-0.312 0.143,-0.288C0.121,-0.263 0.11,-0.233 0.11,-0.198C0.11,-0.162 0.121,-0.132 0.142,-0.108C0.163,-0.083 0.189,-0.071 0.221,-0.071C0.253,-0.071 0.279,-0.083 0.299,-0.107C0.319,-0.13 0.329,-0.161 0.329,-0.198Z" style="fill:rgb(245,72,127);fill-rule:nonzero;"/>
            </g>
        </g>
        <g transform="matrix(1.47973,0,0,1.47973,-572.875,-308.563)">
            <g transform="matrix(527.484,0,0,527.484,561.267,757.301)">
                <path d="M0.137,-0.359C0.165,-0.392 0.207,-0.408 0.262,-0.408C0.314,-0.408 0.357,-0.387 0.392,-0.346C0.426,-0.305 0.443,-0.256 0.443,-0.2C0.443,-0.139 0.426,-0.089 0.392,-0.048C0.358,-0.007 0.314,0.013 0.26,0.013C0.202,0.013 0.162,-0.004 0.139,-0.037L0.137,0.167L0.04,0.167L0.04,-0.395L0.137,-0.395L0.137,-0.359ZM0.344,-0.198C0.344,-0.232 0.334,-0.262 0.315,-0.287C0.296,-0.312 0.269,-0.324 0.235,-0.324C0.204,-0.324 0.178,-0.311 0.157,-0.286C0.136,-0.261 0.126,-0.232 0.126,-0.199C0.126,-0.166 0.137,-0.136 0.159,-0.11C0.181,-0.084 0.206,-0.071 0.235,-0.071C0.269,-0.071 0.296,-0.083 0.315,-0.107C0.334,-0.131 0.344,-0.161 0.344,-0.198Z" style="fill:rgb(245,72,127);fill-rule:nonzero;"/>
            </g>
        </g>
        <g transform="matrix(1.47973,0,0,1.47973,-628.89,-307.445)">
            <g transform="matrix(527.484,0,0,527.484,561.267,757.301)">
                <path d="M0.137,-0.359C0.165,-0.392 0.207,-0.408 0.262,-0.408C0.314,-0.408 0.357,-0.387 0.392,-0.346C0.426,-0.305 0.443,-0.256 0.443,-0.2C0.443,-0.139 0.426,-0.089 0.392,-0.048C0.358,-0.007 0.314,0.013 0.26,0.013C0.202,0.013 0.162,-0.004 0.139,-0.037L0.137,0.167L0.04,0.167L0.04,-0.395L0.137,-0.395L0.137,-0.359ZM0.344,-0.198C0.344,-0.232 0.334,-0.262 0.315,-0.287C0.296,-0.312 0.269,-0.324 0.235,-0.324C0.204,-0.324 0.178,-0.311 0.157,-0.286C0.136,-0.261 0.126,-0.232 0.126,-0.199C0.126,-0.166 0.137,-0.136 0.159,-0.11C0.181,-0.084 0.206,-0.071 0.235,-0.071C0.269,-0.071 0.296,-0.083 0.315,-0.107C0.334,-0.131 0.344,-0.161 0.344,-0.198Z" style="fill:rgb(31,48,110);fill-rule:nonzero;"/>
            </g>
            <g transform="matrix(527.484,0,0,527.484,801.273,757.301)">
                <path d="M0.428,-0.198C0.428,-0.136 0.409,-0.085 0.371,-0.046C0.333,-0.007 0.283,0.013 0.222,0.013C0.16,0.013 0.11,-0.007 0.071,-0.046C0.032,-0.085 0.013,-0.136 0.013,-0.198C0.013,-0.259 0.032,-0.31 0.07,-0.349C0.108,-0.388 0.158,-0.408 0.22,-0.408C0.282,-0.408 0.332,-0.389 0.371,-0.35C0.409,-0.311 0.428,-0.26 0.428,-0.198ZM0.111,-0.196C0.111,-0.159 0.121,-0.129 0.142,-0.106C0.163,-0.083 0.189,-0.071 0.222,-0.071C0.255,-0.071 0.281,-0.084 0.301,-0.109C0.32,-0.133 0.33,-0.163 0.33,-0.198C0.33,-0.232 0.32,-0.262 0.3,-0.287C0.28,-0.312 0.254,-0.324 0.222,-0.324C0.189,-0.324 0.163,-0.312 0.142,-0.288C0.121,-0.264 0.111,-0.233 0.111,-0.196Z" style="fill:rgb(31,48,110);fill-rule:nonzero;"/>
            </g>
            <g transform="matrix(527.484,0,0,527.484,1033.89,757.301)">
                <path d="M0.159,-0L0.062,-0L0.062,-0.308L0.015,-0.308L0.015,-0.387L0.062,-0.387L0.062,-0.529L0.159,-0.529L0.159,-0.387L0.236,-0.387L0.236,-0.308L0.159,-0.308L0.159,-0Z" style="fill:rgb(31,48,110);fill-rule:nonzero;"/>
            </g>
            <g transform="matrix(527.484,0,0,527.484,1150.47,757.301)">
                <path d="M0.146,-0.087L0.329,-0.087L0.329,-0L0.043,-0L0.043,-0.607L0.146,-0.607L0.146,-0.087Z" style="fill:rgb(31,48,110);fill-rule:nonzero;"/>
            </g>
            <g transform="matrix(527.484,0,0,527.484,1321.37,757.301)">
                <path d="M0.159,-0.561C0.159,-0.546 0.153,-0.532 0.142,-0.521C0.131,-0.51 0.117,-0.504 0.102,-0.504C0.087,-0.504 0.073,-0.51 0.062,-0.521C0.051,-0.532 0.045,-0.546 0.045,-0.561C0.045,-0.576 0.051,-0.59 0.062,-0.601C0.073,-0.612 0.087,-0.618 0.102,-0.618C0.117,-0.618 0.131,-0.612 0.142,-0.601C0.153,-0.59 0.159,-0.576 0.159,-0.561ZM0.151,-0L0.054,-0L0.054,-0.395L0.151,-0.395L0.151,-0Z" style="fill:rgb(31,48,110);fill-rule:nonzero;"/>
            </g>
            <g transform="matrix(527.484,0,0,527.484,1428.98,757.301)">
                <path d="M0.318,-0.037C0.292,-0.004 0.251,0.013 0.195,0.013C0.139,0.013 0.094,-0.008 0.062,-0.051C0.028,-0.094 0.012,-0.144 0.012,-0.201C0.012,-0.258 0.029,-0.307 0.063,-0.348C0.096,-0.388 0.139,-0.408 0.192,-0.408C0.248,-0.408 0.289,-0.392 0.316,-0.359L0.318,-0.683L0.415,-0.683L0.415,-0L0.318,-0L0.318,-0.037ZM0.329,-0.198C0.329,-0.233 0.318,-0.262 0.297,-0.287C0.276,-0.312 0.25,-0.324 0.22,-0.324C0.19,-0.324 0.164,-0.312 0.143,-0.288C0.121,-0.263 0.11,-0.233 0.11,-0.198C0.11,-0.162 0.121,-0.132 0.142,-0.108C0.163,-0.083 0.189,-0.071 0.221,-0.071C0.253,-0.071 0.279,-0.083 0.299,-0.107C0.319,-0.13 0.329,-0.161 0.329,-0.198Z" style="fill:rgb(31,48,110);fill-rule:nonzero;"/>
            </g>
        </g>
        <g transform="matrix(0.722206,0,0,0.722206,779.851,796.977)">
            <g transform="matrix(189.373,0,0,189.373,228.184,171.088)">
                <path d="M0.043,-0.607L0.213,-0.607C0.3,-0.607 0.37,-0.578 0.425,-0.521C0.479,-0.464 0.506,-0.391 0.506,-0.304C0.506,-0.217 0.478,-0.144 0.424,-0.087C0.369,-0.029 0.298,-0 0.212,-0L0.043,-0L0.043,-0.607ZM0.146,-0.093L0.181,-0.093C0.326,-0.093 0.399,-0.163 0.399,-0.304C0.399,-0.444 0.326,-0.514 0.181,-0.514L0.146,-0.514L0.146,-0.093Z" style="fill:rgb(245,72,127);fill-rule:nonzero;"/>
            </g>
            <g transform="matrix(189.373,0,0,189.373,326.657,171.088)">
                <path d="M0.115,-0.188C0.115,-0.15 0.123,-0.119 0.14,-0.094C0.157,-0.069 0.18,-0.057 0.209,-0.057C0.255,-0.057 0.284,-0.08 0.297,-0.125L0.389,-0.11C0.359,-0.028 0.299,0.013 0.209,0.013C0.149,0.013 0.101,-0.006 0.066,-0.045C0.03,-0.083 0.012,-0.133 0.012,-0.194C0.012,-0.259 0.029,-0.311 0.064,-0.35C0.098,-0.389 0.145,-0.408 0.204,-0.408C0.263,-0.408 0.309,-0.39 0.342,-0.353C0.375,-0.315 0.391,-0.265 0.391,-0.201L0.391,-0.188L0.115,-0.188ZM0.301,-0.242C0.301,-0.269 0.293,-0.293 0.276,-0.314C0.259,-0.335 0.237,-0.345 0.21,-0.345C0.183,-0.345 0.161,-0.334 0.144,-0.313C0.127,-0.291 0.118,-0.267 0.118,-0.242L0.301,-0.242Z" style="fill:rgb(245,72,127);fill-rule:nonzero;"/>
            </g>
            <g transform="matrix(189.373,0,0,189.373,402.974,171.088)">
                <path d="M0.202,-0.145L0.299,-0.395L0.407,-0.395L0.225,0.008L0.167,0.008L-0.014,-0.395L0.093,-0.395L0.202,-0.145Z" style="fill:rgb(245,72,127);fill-rule:nonzero;"/>
            </g>
            <g transform="matrix(189.373,0,0,189.373,477.398,171.088)">
                <path d="M0.115,-0.188C0.115,-0.15 0.123,-0.119 0.14,-0.094C0.157,-0.069 0.18,-0.057 0.209,-0.057C0.255,-0.057 0.284,-0.08 0.297,-0.125L0.389,-0.11C0.359,-0.028 0.299,0.013 0.209,0.013C0.149,0.013 0.101,-0.006 0.066,-0.045C0.03,-0.083 0.012,-0.133 0.012,-0.194C0.012,-0.259 0.029,-0.311 0.064,-0.35C0.098,-0.389 0.145,-0.408 0.204,-0.408C0.263,-0.408 0.309,-0.39 0.342,-0.353C0.375,-0.315 0.391,-0.265 0.391,-0.201L0.391,-0.188L0.115,-0.188ZM0.301,-0.242C0.301,-0.269 0.293,-0.293 0.276,-0.314C0.259,-0.335 0.237,-0.345 0.21,-0.345C0.183,-0.345 0.161,-0.334 0.144,-0.313C0.127,-0.291 0.118,-0.267 0.118,-0.242L0.301,-0.242Z" style="fill:rgb(245,72,127);fill-rule:nonzero;"/>
            </g>
            <g transform="matrix(189.373,0,0,189.373,553.715,171.088)">
                <rect x="0.048" y="-0.683" width="0.097" height="0.683" style="fill:rgb(245,72,127);fill-rule:nonzero;"/>
            </g>
            <g transform="matrix(189.373,0,0,189.373,590.075,171.088)">
                <path d="M0.428,-0.198C0.428,-0.136 0.409,-0.085 0.371,-0.046C0.333,-0.007 0.283,0.013 0.222,0.013C0.16,0.013 0.11,-0.007 0.071,-0.046C0.032,-0.085 0.013,-0.136 0.013,-0.198C0.013,-0.259 0.032,-0.31 0.07,-0.349C0.108,-0.388 0.158,-0.408 0.22,-0.408C0.282,-0.408 0.332,-0.389 0.371,-0.35C0.409,-0.311 0.428,-0.26 0.428,-0.198ZM0.111,-0.196C0.111,-0.159 0.121,-0.129 0.142,-0.106C0.163,-0.083 0.189,-0.071 0.222,-0.071C0.255,-0.071 0.281,-0.084 0.301,-0.109C0.32,-0.133 0.33,-0.163 0.33,-0.198C0.33,-0.232 0.32,-0.262 0.3,-0.287C0.28,-0.312 0.254,-0.324 0.222,-0.324C0.189,-0.324 0.163,-0.312 0.142,-0.288C0.121,-0.264 0.111,-0.233 0.111,-0.196Z" style="fill:rgb(245,72,127);fill-rule:nonzero;"/>
            </g>
            <g transform="matrix(189.373,0,0,189.373,673.588,171.088)">
                <path d="M0.137,-0.359C0.165,-0.392 0.207,-0.408 0.262,-0.408C0.314,-0.408 0.357,-0.387 0.392,-0.346C0.426,-0.305 0.443,-0.256 0.443,-0.2C0.443,-0.139 0.426,-0.089 0.392,-0.048C0.358,-0.007 0.314,0.013 0.26,0.013C0.202,0.013 0.162,-0.004 0.139,-0.037L0.137,0.167L0.04,0.167L0.04,-0.395L0.137,-0.395L0.137,-0.359ZM0.344,-0.198C0.344,-0.232 0.334,-0.262 0.315,-0.287C0.296,-0.312 0.269,-0.324 0.235,-0.324C0.204,-0.324 0.178,-0.311 0.157,-0.286C0.136,-0.261 0.126,-0.232 0.126,-0.199C0.126,-0.166 0.137,-0.136 0.159,-0.11C0.181,-0.084 0.206,-0.071 0.235,-0.071C0.269,-0.071 0.296,-0.083 0.315,-0.107C0.334,-0.131 0.344,-0.161 0.344,-0.198Z" style="fill:rgb(245,72,127);fill-rule:nonzero;"/>
            </g>
            <g transform="matrix(189.373,0,0,189.373,759.752,171.088)">
                <path d="M0.115,-0.188C0.115,-0.15 0.123,-0.119 0.14,-0.094C0.157,-0.069 0.18,-0.057 0.209,-0.057C0.255,-0.057 0.284,-0.08 0.297,-0.125L0.389,-0.11C0.359,-0.028 0.299,0.013 0.209,0.013C0.149,0.013 0.101,-0.006 0.066,-0.045C0.03,-0.083 0.012,-0.133 0.012,-0.194C0.012,-0.259 0.029,-0.311 0.064,-0.35C0.098,-0.389 0.145,-0.408 0.204,-0.408C0.263,-0.408 0.309,-0.39 0.342,-0.353C0.375,-0.315 0.391,-0.265 0.391,-0.201L0.391,-0.188L0.115,-0.188ZM0.301,-0.242C0.301,-0.269 0.293,-0.293 0.276,-0.314C0.259,-0.335 0.237,-0.345 0.21,-0.345C0.183,-0.345 0.161,-0.334 0.144,-0.313C0.127,-0.291 0.118,-0.267 0.118,-0.242L0.301,-0.242Z" style="fill:rgb(245,72,127);fill-rule:nonzero;"/>
            </g>
            <g transform="matrix(189.373,0,0,189.373,836.07,171.088)">
                <path d="M0.137,-0.354C0.162,-0.39 0.2,-0.408 0.253,-0.408C0.27,-0.408 0.285,-0.405 0.299,-0.398L0.287,-0.31C0.272,-0.319 0.256,-0.324 0.239,-0.324C0.171,-0.324 0.137,-0.275 0.137,-0.178L0.137,-0L0.04,-0L0.04,-0.395L0.137,-0.395L0.137,-0.354Z" style="fill:rgb(245,72,127);fill-rule:nonzero;"/>
            </g>
        </g>
        <g transform="matrix(0.722206,0,0,0.722206,336.78,334.189)">
            <g transform="matrix(189.373,0,0,189.373,228.184,171.088)">
                <path d="M0.337,-0.484C0.311,-0.521 0.278,-0.539 0.238,-0.539C0.213,-0.539 0.191,-0.531 0.174,-0.516C0.157,-0.501 0.148,-0.48 0.148,-0.455C0.148,-0.429 0.18,-0.398 0.243,-0.363C0.306,-0.328 0.337,-0.31 0.338,-0.31C0.383,-0.277 0.405,-0.237 0.405,-0.192C0.405,-0.13 0.387,-0.08 0.352,-0.042C0.316,-0.003 0.267,0.016 0.205,0.016C0.126,0.016 0.064,-0.023 0.019,-0.102L0.084,-0.166C0.093,-0.143 0.109,-0.121 0.132,-0.102C0.155,-0.083 0.179,-0.073 0.204,-0.073C0.233,-0.073 0.257,-0.083 0.274,-0.103C0.291,-0.123 0.299,-0.147 0.299,-0.176C0.299,-0.197 0.293,-0.215 0.28,-0.231C0.267,-0.246 0.225,-0.27 0.152,-0.303C0.079,-0.335 0.042,-0.381 0.042,-0.441C0.042,-0.492 0.059,-0.536 0.093,-0.571C0.126,-0.606 0.168,-0.623 0.219,-0.623C0.289,-0.623 0.344,-0.6 0.385,-0.555L0.337,-0.484Z" style="fill:rgb(245,72,127);fill-rule:nonzero;"/>
            </g>
            <g transform="matrix(189.373,0,0,189.373,308.288,171.088)">
                <path d="M0.428,-0.198C0.428,-0.136 0.409,-0.085 0.371,-0.046C0.333,-0.007 0.283,0.013 0.222,0.013C0.16,0.013 0.11,-0.007 0.071,-0.046C0.032,-0.085 0.013,-0.136 0.013,-0.198C0.013,-0.259 0.032,-0.31 0.07,-0.349C0.108,-0.388 0.158,-0.408 0.22,-0.408C0.282,-0.408 0.332,-0.389 0.371,-0.35C0.409,-0.311 0.428,-0.26 0.428,-0.198ZM0.111,-0.196C0.111,-0.159 0.121,-0.129 0.142,-0.106C0.163,-0.083 0.189,-0.071 0.222,-0.071C0.255,-0.071 0.281,-0.084 0.301,-0.109C0.32,-0.133 0.33,-0.163 0.33,-0.198C0.33,-0.232 0.32,-0.262 0.3,-0.287C0.28,-0.312 0.254,-0.324 0.222,-0.324C0.189,-0.324 0.163,-0.312 0.142,-0.288C0.121,-0.264 0.111,-0.233 0.111,-0.196Z" style="fill:rgb(245,72,127);fill-rule:nonzero;"/>
            </g>
            <g transform="matrix(189.373,0,0,189.373,391.801,171.088)">
                <path d="M0.149,-0L0.052,-0L0.052,-0.308L0.006,-0.308L0.006,-0.387L0.052,-0.387L0.052,-0.511C0.052,-0.632 0.099,-0.692 0.193,-0.692C0.212,-0.692 0.23,-0.688 0.247,-0.679L0.247,-0.595C0.23,-0.604 0.214,-0.608 0.201,-0.608C0.183,-0.608 0.17,-0.602 0.162,-0.589C0.153,-0.576 0.149,-0.544 0.149,-0.495L0.149,-0.387L0.247,-0.387L0.247,-0.308L0.149,-0.308L0.149,-0Z" style="fill:rgb(245,72,127);fill-rule:nonzero;"/>
            </g>
            <g transform="matrix(189.373,0,0,189.373,438.008,171.088)">
                <path d="M0.159,-0L0.062,-0L0.062,-0.308L0.015,-0.308L0.015,-0.387L0.062,-0.387L0.062,-0.529L0.159,-0.529L0.159,-0.387L0.236,-0.387L0.236,-0.308L0.159,-0.308L0.159,-0Z" style="fill:rgb(245,72,127);fill-rule:nonzero;"/>
            </g>
            <g transform="matrix(189.373,0,0,189.373,479.86,171.088)">
                <path d="M0.19,-0.137L0.295,-0.408L0.33,-0.408L0.44,-0.138L0.538,-0.395L0.645,-0.395L0.461,0.008L0.412,0.008L0.321,-0.245L0.217,0.008L0.167,0.008L-0.014,-0.395L0.093,-0.395L0.19,-0.137Z" style="fill:rgb(245,72,127);fill-rule:nonzero;"/>
            </g>
            <g transform="matrix(189.373,0,0,189.373,599.164,171.088)">
                <path d="M0.414,-0L0.319,-0L0.319,-0.036C0.291,-0.003 0.249,0.013 0.194,0.013C0.139,0.013 0.094,-0.008 0.062,-0.051C0.028,-0.094 0.012,-0.144 0.012,-0.201C0.012,-0.258 0.029,-0.307 0.063,-0.348C0.096,-0.388 0.139,-0.408 0.192,-0.408C0.248,-0.408 0.29,-0.391 0.319,-0.358L0.319,-0.395L0.414,-0.395L0.414,-0ZM0.33,-0.198C0.33,-0.235 0.32,-0.265 0.299,-0.289C0.278,-0.312 0.252,-0.324 0.22,-0.324C0.187,-0.324 0.161,-0.313 0.141,-0.29C0.12,-0.267 0.11,-0.236 0.11,-0.198C0.11,-0.16 0.12,-0.129 0.141,-0.106C0.162,-0.083 0.188,-0.071 0.221,-0.071C0.254,-0.071 0.28,-0.082 0.3,-0.105C0.32,-0.128 0.33,-0.159 0.33,-0.198Z" style="fill:rgb(245,72,127);fill-rule:nonzero;"/>
            </g>
            <g transform="matrix(189.373,0,0,189.373,685.329,171.088)">
                <path d="M0.137,-0.354C0.162,-0.39 0.2,-0.408 0.253,-0.408C0.27,-0.408 0.285,-0.405 0.299,-0.398L0.287,-0.31C0.272,-0.319 0.256,-0.324 0.239,-0.324C0.171,-0.324 0.137,-0.275 0.137,-0.178L0.137,-0L0.04,-0L0.04,-0.395L0.137,-0.395L0.137,-0.354Z" style="fill:rgb(245,72,127);fill-rule:nonzero;"/>
            </g>
            <g transform="matrix(189.373,0,0,189.373,741.194,171.088)">
                <path d="M0.115,-0.188C0.115,-0.15 0.123,-0.119 0.14,-0.094C0.157,-0.069 0.18,-0.057 0.209,-0.057C0.255,-0.057 0.284,-0.08 0.297,-0.125L0.389,-0.11C0.359,-0.028 0.299,0.013 0.209,0.013C0.149,0.013 0.101,-0.006 0.066,-0.045C0.03,-0.083 0.012,-0.133 0.012,-0.194C0.012,-0.259 0.029,-0.311 0.064,-0.35C0.098,-0.389 0.145,-0.408 0.204,-0.408C0.263,-0.408 0.309,-0.39 0.342,-0.353C0.375,-0.315 0.391,-0.265 0.391,-0.201L0.391,-0.188L0.115,-0.188ZM0.301,-0.242C0.301,-0.269 0.293,-0.293 0.276,-0.314C0.259,-0.335 0.237,-0.345 0.21,-0.345C0.183,-0.345 0.161,-0.334 0.144,-0.313C0.127,-0.291 0.118,-0.267 0.118,-0.242L0.301,-0.242Z" style="fill:rgb(245,72,127);fill-rule:nonzero;"/>
            </g>
        </g>
    </g>
</svg>
